<?xml version="1.0" encoding="UTF-8" standalone="no"?>
<!DOCTYPE svg PUBLIC "-//W3C//DTD SVG 1.1//EN"
 "http://www.w3.org/Graphics/SVG/1.1/DTD/svg11.dtd">
<!-- Generated by graphviz version 2.43.0 (0)
 -->
<!-- Title: Legend Pages: 1 -->
<svg width="1010pt" height="423pt"
 viewBox="0.00 0.00 1010.00 423.00" xmlns="http://www.w3.org/2000/svg" xmlns:xlink="http://www.w3.org/1999/xlink">
<g id="graph0" class="graph" transform="scale(1 1) rotate(0) translate(4 419)">
<title>Legend</title>
<polygon fill="white" stroke="transparent" points="-4,4 -4,-419 1006,-419 1006,4 -4,4"/>
<g id="clust1" class="cluster">
<title>clusterLegend</title>
<polygon fill="white" stroke="black" points="8,-8 8,-407 994,-407 994,-8 8,-8"/>
<text text-anchor="middle" x="501" y="-391.8" font-family="Times,serif" font-size="14.00">Legend</text>
</g>
<!-- CPP -->
<g id="node1" class="node">
<title>CPP</title>
<polygon fill="royalblue" stroke="black" points="191.5,-376 136.5,-376 136.5,-340 197.5,-340 197.5,-370 191.5,-376"/>
<polyline fill="none" stroke="black" points="191.5,-376 191.5,-370 "/>
<polyline fill="none" stroke="black" points="197.5,-370 191.5,-370 "/>
<text text-anchor="middle" x="167" y="-354.3" font-family="Times,serif" font-size="14.00">Foo.cpp</text>
</g>
<!-- CPP_LGD -->
<g id="node2" class="node">
<title>CPP_LGD</title>
<polygon fill="white" stroke="transparent" points="578,-376 468,-376 468,-340 578,-340 578,-376"/>
<text text-anchor="middle" x="523" y="-354.3" font-family="Times,serif" font-size="14.00">: C++ source file</text>
</g>
<!-- CPP&#45;&gt;CPP_LGD -->
<g id="edge1" class="edge">
<title>CPP&#45;&gt;CPP_LGD</title>
</g>
<!-- LIB -->
<g id="node3" class="node">
<title>LIB</title>
<polygon fill="royalblue" stroke="black" points="201,-322 133,-322 133,-318 129,-318 129,-314 133,-314 133,-294 129,-294 129,-290 133,-290 133,-286 201,-286 201,-322"/>
<polyline fill="none" stroke="black" points="133,-318 137,-318 137,-314 133,-314 "/>
<polyline fill="none" stroke="black" points="133,-294 137,-294 137,-290 133,-290 "/>
<text text-anchor="middle" x="167" y="-300.3" font-family="Times,serif" font-size="14.00">libFoo.so</text>
</g>
<!-- LIB_LGD -->
<g id="node4" class="node">
<title>LIB_LGD</title>
<polygon fill="white" stroke="transparent" points="608,-322 438,-322 438,-286 608,-286 608,-322"/>
<text text-anchor="middle" x="523" y="-300.3" font-family="Times,serif" font-size="14.00">: Shared library (i.e. binary)</text>
</g>
<!-- LIB&#45;&gt;LIB_LGD -->
<g id="edge2" class="edge">
<title>LIB&#45;&gt;LIB_LGD</title>
</g>
<!-- PYWRP -->
<g id="node5" class="node">
<title>PYWRP</title>
<polygon fill="gold" stroke="black" points="199,-268 135,-268 135,-264 131,-264 131,-260 135,-260 135,-240 131,-240 131,-236 135,-236 135,-232 199,-232 199,-268"/>
<polyline fill="none" stroke="black" points="135,-264 139,-264 139,-260 135,-260 "/>
<polyline fill="none" stroke="black" points="135,-240 139,-240 139,-236 135,-236 "/>
<text text-anchor="middle" x="167" y="-246.3" font-family="Times,serif" font-size="14.00">pyfoo.so</text>
</g>
<!-- PYWRP_LGD -->
<g id="node6" class="node">
<title>PYWRP_LGD</title>
<polygon fill="white" stroke="transparent" points="666,-268 380,-268 380,-232 666,-232 666,-268"/>
<text text-anchor="middle" x="523" y="-246.3" font-family="Times,serif" font-size="14.00">: C++ pybind wrapper shared library (i.e. binary)</text>
</g>
<!-- PYWRP&#45;&gt;PYWRP_LGD -->
<g id="edge3" class="edge">
<title>PYWRP&#45;&gt;PYWRP_LGD</title>
</g>
<!-- WHL -->
<g id="node7" class="node">
<title>WHL</title>
<polygon fill="gold" stroke="black" points="318,-214 315,-218 294,-218 291,-214 16,-214 16,-178 318,-178 318,-214"/>
<text text-anchor="middle" x="167" y="-192.3" font-family="Times,serif" font-size="14.00">pythonnative&#45;&lt;version&gt;&#45;cp3*&#45;cp3*&#45;&lt;platform&gt;.whl</text>
</g>
<!-- WHL_LGD -->
<g id="node8" class="node">
<title>WHL_LGD</title>
<polygon fill="white" stroke="transparent" points="644,-214 402,-214 402,-178 644,-178 644,-214"/>
<text text-anchor="middle" x="523" y="-192.3" font-family="Times,serif" font-size="14.00">: Python package file (i.e. wheel archive)</text>
</g>
<!-- WHL&#45;&gt;WHL_LGD -->
<g id="edge4" class="edge">
<title>WHL&#45;&gt;WHL_LGD</title>
</g>
<!-- A -->
<g id="node9" class="node">
<title>A</title>
<polygon fill="white" stroke="black" points="188,-160 140,-160 140,-124 194,-124 194,-154 188,-160"/>
<polyline fill="none" stroke="black" points="188,-160 188,-154 "/>
<polyline fill="none" stroke="black" points="194,-154 188,-154 "/>
<text text-anchor="middle" x="167" y="-138.3" font-family="Times,serif" font-size="14.00">A</text>
</g>
<!-- B -->
<g id="node10" class="node">
<title>B</title>
<polygon fill="white" stroke="black" points="544,-160 496,-160 496,-124 550,-124 550,-154 544,-160"/>
<polyline fill="none" stroke="black" points="544,-160 544,-154 "/>
<polyline fill="none" stroke="black" points="550,-154 544,-154 "/>
<text text-anchor="middle" x="523" y="-138.3" font-family="Times,serif" font-size="14.00">B</text>
</g>
<!-- A&#45;&gt;B -->
<g id="edge5" class="edge">
<title>A&#45;&gt;B</title>
<path fill="none" stroke="black" stroke-width="2" d="M194.03,-142C256.3,-142 413.98,-142 485.61,-142"/>
<polygon fill="black" stroke="black" stroke-width="2" points="485.93,-145.5 495.93,-142 485.93,-138.5 485.93,-145.5"/>
<text text-anchor="middle" x="349" y="-145.8" font-family="Times,serif" font-size="14.00">cmd</text>
</g>
<!-- CMD_LGD -->
<g id="node11" class="node">
<title>CMD_LGD</title>
<polygon fill="white" stroke="transparent" points="967,-162 722,-162 722,-126 967,-126 967,-162"/>
<text text-anchor="middle" x="844.5" y="-140.3" font-family="Times,serif" font-size="14.00">: &#39;cmd [...] A&#39; will generate file B from A.</text>
</g>
<!-- B&#45;&gt;CMD_LGD -->
<g id="edge6" class="edge">
<title>B&#45;&gt;CMD_LGD</title>
</g>
<!-- C -->
<g id="node12" class="node">
<title>C</title>
<polygon fill="white" stroke="black" points="188,-106 140,-106 140,-70 194,-70 194,-100 188,-106"/>
<polyline fill="none" stroke="black" points="188,-106 188,-100 "/>
<polyline fill="none" stroke="black" points="194,-100 188,-100 "/>
<text text-anchor="middle" x="167" y="-84.3" font-family="Times,serif" font-size="14.00">A</text>
</g>
<!-- D -->
<g id="node13" class="node">
<title>D</title>
<polygon fill="white" stroke="black" points="544,-106 496,-106 496,-70 550,-70 550,-100 544,-106"/>
<polyline fill="none" stroke="black" points="544,-106 544,-100 "/>
<polyline fill="none" stroke="black" points="550,-100 544,-100 "/>
<text text-anchor="middle" x="523" y="-84.3" font-family="Times,serif" font-size="14.00">B</text>
</g>
<!-- C&#45;&gt;D -->
<g id="edge7" class="edge">
<title>C&#45;&gt;D</title>
<path fill="none" stroke="black" stroke-dasharray="5,2" d="M194.03,-88C256.3,-88 413.98,-88 485.61,-88"/>
<polygon fill="black" stroke="black" points="485.93,-91.5 495.93,-88 485.93,-84.5 485.93,-91.5"/>
<text text-anchor="middle" x="349" y="-91.8" font-family="Times,serif" font-size="14.00">ref</text>
</g>
<!-- REF_LGD -->
<g id="node14" class="node">
<title>REF_LGD</title>
<polygon fill="white" stroke="transparent" points="967.5,-108 721.5,-108 721.5,-70 967.5,-70 967.5,-108"/>
<text text-anchor="middle" x="844.5" y="-92.8" font-family="Times,serif" font-size="14.00">: B references file A (i.e. B depends on A)</text>
<text text-anchor="middle" x="844.5" y="-77.8" font-family="Times,serif" font-size="14.00">&#39;ref&#39; may refer to the keyword use in B.</text>
</g>
<!-- D&#45;&gt;REF_LGD -->
<g id="edge8" class="edge">
<title>D&#45;&gt;REF_LGD</title>
</g>
<!-- E -->
<g id="node15" class="node">
<title>E</title>
<polygon fill="white" stroke="black" points="188,-52 140,-52 140,-16 194,-16 194,-46 188,-52"/>
<polyline fill="none" stroke="black" points="188,-52 188,-46 "/>
<polyline fill="none" stroke="black" points="194,-46 188,-46 "/>
<text text-anchor="middle" x="167" y="-30.3" font-family="Times,serif" font-size="14.00">E</text>
</g>
<!-- F -->
<g id="node16" class="node">
<title>F</title>
<polygon fill="white" stroke="black" points="550,-52 547,-56 526,-56 523,-52 496,-52 496,-16 550,-16 550,-52"/>
<text text-anchor="middle" x="523" y="-30.3" font-family="Times,serif" font-size="14.00">F</text>
</g>
<!-- E&#45;&gt;F -->
<g id="edge9" class="edge">
<title>E&#45;&gt;F</title>
<path fill="none" stroke="black" stroke-dasharray="5,2" d="M194.03,-34C256.3,-34 413.98,-34 485.61,-34"/>
<polygon fill="black" stroke="black" points="485.93,-37.5 495.93,-34 485.93,-30.5 485.93,-37.5"/>
<text text-anchor="middle" x="349" y="-37.8" font-family="Times,serif" font-size="14.00">pack</text>
</g>
<!-- FOLDER_LGD -->
<g id="node17" class="node">
<title>FOLDER_LGD</title>
<polygon fill="white" stroke="transparent" points="986,-52 703,-52 703,-16 986,-16 986,-52"/>
<text text-anchor="middle" x="844.5" y="-30.3" font-family="Times,serif" font-size="14.00">: Archive F contains file E (i.e. F depends on E).</text>
</g>
<!-- F&#45;&gt;FOLDER_LGD -->
<g id="edge10" class="edge">
<title>F&#45;&gt;FOLDER_LGD</title>
</g>
</g>
</svg>
