<?xml version="1.0" encoding="UTF-8" standalone="no"?>
<!DOCTYPE svg PUBLIC "-//W3C//DTD SVG 1.1//EN"
 "http://www.w3.org/Graphics/SVG/1.1/DTD/svg11.dtd">
<!-- Generated by graphviz version 2.43.0 (0)
 -->
<!-- Title: CMake Pages: 1 -->
<svg width="390pt" height="509pt"
 viewBox="0.00 0.00 390.00 509.00" xmlns="http://www.w3.org/2000/svg" xmlns:xlink="http://www.w3.org/1999/xlink">
<g id="graph0" class="graph" transform="scale(1 1) rotate(0) translate(4 505)">
<title>CMake</title>
<polygon fill="white" stroke="transparent" points="-4,4 -4,-505 386,-505 386,4 -4,4"/>
<g id="clust1" class="cluster">
<title>clusterLinux</title>
<polygon fill="none" stroke="black" points="8,-8 8,-493 374,-493 374,-8 8,-8"/>
<text text-anchor="middle" x="191" y="-477.8" font-family="Times,serif" font-size="14.00">Host</text>
</g>
<g id="clust2" class="cluster">
<title>clusterCPP</title>
<polygon fill="none" stroke="royalblue" points="16,-211 16,-462 366,-462 366,-211 16,-211"/>
<text text-anchor="middle" x="191" y="-446.8" font-family="Times,serif" font-size="14.00">C++</text>
</g>
<g id="clust3" class="cluster">
<title>clusterPYTHON</title>
<polygon fill="none" stroke="gold" points="75,-16 75,-178 307,-178 307,-16 75,-16"/>
<text text-anchor="middle" x="191" y="-162.8" font-family="Times,serif" font-size="14.00">Python</text>
</g>
<!-- PKG -->
<g id="node1" class="node">
<title>PKG</title>
<polygon fill="royalblue" stroke="black" points="357.5,-431 242.5,-431 238.5,-427 238.5,-393 353.5,-393 357.5,-397 357.5,-431"/>
<polyline fill="none" stroke="black" points="353.5,-427 238.5,-427 "/>
<polyline fill="none" stroke="black" points="353.5,-427 353.5,-393 "/>
<polyline fill="none" stroke="black" points="353.5,-427 357.5,-431 "/>
<text text-anchor="middle" x="298" y="-415.8" font-family="Times,serif" font-size="14.00">C++ dev packages</text>
<text text-anchor="middle" x="298" y="-400.8" font-family="Times,serif" font-size="14.00">e.g. cmake, g++</text>
</g>
<!-- PYBIND -->
<g id="node2" class="node">
<title>PYBIND</title>
<polygon fill="royalblue" stroke="black" points="92,-430 28,-430 24,-426 24,-394 88,-394 92,-398 92,-430"/>
<polyline fill="none" stroke="black" points="88,-426 24,-426 "/>
<polyline fill="none" stroke="black" points="88,-426 88,-394 "/>
<polyline fill="none" stroke="black" points="88,-426 92,-430 "/>
<text text-anchor="middle" x="58" y="-408.3" font-family="Times,serif" font-size="14.00">pybind11</text>
</g>
<!-- WRAPPER_CPP -->
<g id="node5" class="node">
<title>WRAPPER_CPP</title>
<polygon fill="royalblue" stroke="black" points="126,-342 58,-342 58,-306 132,-306 132,-336 126,-342"/>
<polyline fill="none" stroke="black" points="126,-342 126,-336 "/>
<polyline fill="none" stroke="black" points="132,-336 126,-336 "/>
<text text-anchor="middle" x="95" y="-320.3" font-family="Times,serif" font-size="14.00">pyFoo.cpp</text>
</g>
<!-- PYBIND&#45;&gt;WRAPPER_CPP -->
<g id="edge1" class="edge">
<title>PYBIND&#45;&gt;WRAPPER_CPP</title>
<path fill="none" stroke="black" stroke-dasharray="5,2" d="M55.16,-393.77C54.23,-383.55 54.42,-370.56 59,-360 60.59,-356.33 62.78,-352.84 65.28,-349.6"/>
<polygon fill="black" stroke="black" points="67.96,-351.85 72.03,-342.07 62.75,-347.18 67.96,-351.85"/>
<text text-anchor="middle" x="79" y="-363.8" font-family="Times,serif" font-size="14.00">include</text>
</g>
<!-- CPP -->
<g id="node3" class="node">
<title>CPP</title>
<polygon fill="royalblue" stroke="black" points="214,-430 110,-430 110,-394 220,-394 220,-424 214,-430"/>
<polyline fill="none" stroke="black" points="214,-430 214,-424 "/>
<polyline fill="none" stroke="black" points="220,-424 214,-424 "/>
<text text-anchor="middle" x="165" y="-408.3" font-family="Times,serif" font-size="14.00">Foo.hpp/Foo.cpp</text>
</g>
<!-- LIB -->
<g id="node4" class="node">
<title>LIB</title>
<polygon fill="royalblue" stroke="black" points="218,-342 150,-342 150,-338 146,-338 146,-334 150,-334 150,-314 146,-314 146,-310 150,-310 150,-306 218,-306 218,-342"/>
<polyline fill="none" stroke="black" points="150,-338 154,-338 154,-334 150,-334 "/>
<polyline fill="none" stroke="black" points="150,-314 154,-314 154,-310 150,-310 "/>
<text text-anchor="middle" x="184" y="-320.3" font-family="Times,serif" font-size="14.00">libFoo.so</text>
</g>
<!-- CPP&#45;&gt;LIB -->
<g id="edge3" class="edge">
<title>CPP&#45;&gt;LIB</title>
<path fill="none" stroke="black" stroke-width="2" d="M168.84,-393.6C171.49,-381.63 175.05,-365.5 178.06,-351.89"/>
<polygon fill="black" stroke="black" stroke-width="2" points="181.49,-352.6 180.23,-342.08 174.65,-351.09 181.49,-352.6"/>
<text text-anchor="middle" x="197" y="-363.8" font-family="Times,serif" font-size="14.00">g++, ld</text>
</g>
<!-- CPP&#45;&gt;WRAPPER_CPP -->
<g id="edge2" class="edge">
<title>CPP&#45;&gt;WRAPPER_CPP</title>
<path fill="none" stroke="black" stroke-dasharray="5,2" d="M146.36,-393.69C140.56,-387.96 134.3,-381.4 129,-375 122.78,-367.48 116.59,-358.82 111.23,-350.85"/>
<polygon fill="black" stroke="black" points="113.99,-348.68 105.58,-342.24 108.14,-352.52 113.99,-348.68"/>
<text text-anchor="middle" x="149" y="-363.8" font-family="Times,serif" font-size="14.00">include</text>
</g>
<!-- WRAPPER_LIB -->
<g id="node6" class="node">
<title>WRAPPER_LIB</title>
<polygon fill="royalblue" stroke="black" points="133.5,-255 66.5,-255 66.5,-251 62.5,-251 62.5,-247 66.5,-247 66.5,-227 62.5,-227 62.5,-223 66.5,-223 66.5,-219 133.5,-219 133.5,-255"/>
<polyline fill="none" stroke="black" points="66.5,-251 70.5,-251 70.5,-247 66.5,-247 "/>
<polyline fill="none" stroke="black" points="66.5,-227 70.5,-227 70.5,-223 66.5,-223 "/>
<text text-anchor="middle" x="100" y="-233.3" font-family="Times,serif" font-size="14.00">pyFoo.so</text>
</g>
<!-- LIB&#45;&gt;WRAPPER_LIB -->
<g id="edge5" class="edge">
<title>LIB&#45;&gt;WRAPPER_LIB</title>
<path fill="none" stroke="black" stroke-dasharray="5,2" d="M170.71,-305.68C162.78,-295.74 152.28,-283.24 142,-273 138.23,-269.24 134.1,-265.46 129.94,-261.83"/>
<polygon fill="black" stroke="black" points="131.9,-258.9 122.01,-255.1 127.37,-264.24 131.9,-258.9"/>
<text text-anchor="middle" x="160.5" y="-276.8" font-family="Times,serif" font-size="14.00">ld</text>
</g>
<!-- SETUP -->
<g id="node8" class="node">
<title>SETUP</title>
<polygon fill="gold" stroke="black" points="139,-147 83,-147 83,-111 145,-111 145,-141 139,-147"/>
<polyline fill="none" stroke="black" points="139,-147 139,-141 "/>
<polyline fill="none" stroke="black" points="145,-141 139,-141 "/>
<text text-anchor="middle" x="114" y="-125.3" font-family="Times,serif" font-size="14.00">setup.py</text>
</g>
<!-- LIB&#45;&gt;SETUP -->
<g id="edge7" class="edge">
<title>LIB&#45;&gt;SETUP</title>
<path fill="none" stroke="black" stroke-dasharray="5,2" d="M179.63,-305.75C177.05,-296.05 173.61,-283.77 170,-273 156.22,-231.84 137.32,-185.2 125.38,-156.69"/>
<polygon fill="black" stroke="black" points="128.58,-155.26 121.47,-147.4 122.13,-157.98 128.58,-155.26"/>
</g>
<!-- WHL -->
<g id="node9" class="node">
<title>WHL</title>
<polygon fill="gold" stroke="black" points="256.5,-60 253.5,-64 232.5,-64 229.5,-60 83.5,-60 83.5,-24 256.5,-24 256.5,-60"/>
<text text-anchor="middle" x="170" y="-38.3" font-family="Times,serif" font-size="14.00">foo&#45;cp311&#45;linux&#45;x86_64.whl</text>
</g>
<!-- LIB&#45;&gt;WHL -->
<g id="edge8" class="edge">
<title>LIB&#45;&gt;WHL</title>
<path fill="none" stroke="black" stroke-dasharray="5,2" d="M207.79,-305.77C255.02,-269.42 352.37,-182.33 308,-111 294.42,-89.18 271.56,-74.15 248.3,-63.9"/>
<polygon fill="black" stroke="black" points="249.62,-60.66 239.04,-60.06 246.94,-67.12 249.62,-60.66"/>
<text text-anchor="middle" x="325" y="-189.8" font-family="Times,serif" font-size="14.00">.libs/</text>
</g>
<!-- WRAPPER_CPP&#45;&gt;WRAPPER_LIB -->
<g id="edge4" class="edge">
<title>WRAPPER_CPP&#45;&gt;WRAPPER_LIB</title>
<path fill="none" stroke="black" stroke-width="2" d="M96.01,-305.8C96.7,-294.16 97.61,-278.55 98.4,-265.24"/>
<polygon fill="black" stroke="black" stroke-width="2" points="101.9,-265.36 98.99,-255.18 94.91,-264.95 101.9,-265.36"/>
<text text-anchor="middle" x="119" y="-276.8" font-family="Times,serif" font-size="14.00">g++, ld</text>
</g>
<!-- WRAPPER_LIB&#45;&gt;SETUP -->
<g id="edge9" class="edge">
<title>WRAPPER_LIB&#45;&gt;SETUP</title>
<path fill="none" stroke="black" stroke-dasharray="5,2" d="M102.25,-218.97C104.44,-202.38 107.81,-176.88 110.38,-157.43"/>
<polygon fill="black" stroke="black" points="113.87,-157.71 111.71,-147.34 106.93,-156.8 113.87,-157.71"/>
</g>
<!-- WRAPPER_LIB&#45;&gt;WHL -->
<g id="edge10" class="edge">
<title>WRAPPER_LIB&#45;&gt;WHL</title>
<path fill="none" stroke="black" stroke-dasharray="5,2" d="M80.25,-218.81C69.67,-208.24 57.67,-193.74 52,-178 41.91,-149.98 37.1,-136.78 52,-111 64.16,-89.95 85.59,-74.84 106.88,-64.3"/>
<polygon fill="black" stroke="black" points="108.38,-67.46 115.96,-60.05 105.42,-61.11 108.38,-67.46"/>
<text text-anchor="middle" x="63" y="-125.3" font-family="Times,serif" font-size="14.00">foo/</text>
</g>
<!-- WHL_PKG -->
<g id="node7" class="node">
<title>WHL_PKG</title>
<polygon fill="gold" stroke="black" points="299,-147 167,-147 163,-143 163,-111 295,-111 299,-115 299,-147"/>
<polyline fill="none" stroke="black" points="295,-143 163,-143 "/>
<polyline fill="none" stroke="black" points="295,-143 295,-111 "/>
<polyline fill="none" stroke="black" points="295,-143 299,-147 "/>
<text text-anchor="middle" x="231" y="-125.3" font-family="Times,serif" font-size="14.00">Python wheel module</text>
</g>
<!-- SETUP&#45;&gt;WHL -->
<g id="edge6" class="edge">
<title>SETUP&#45;&gt;WHL</title>
<path fill="none" stroke="black" stroke-width="2" d="M125.33,-110.8C133.3,-98.7 144.11,-82.3 153.09,-68.67"/>
<polygon fill="black" stroke="black" stroke-width="2" points="156.11,-70.45 158.68,-60.18 150.26,-66.6 156.11,-70.45"/>
<text text-anchor="middle" x="178" y="-81.8" font-family="Times,serif" font-size="14.00">bdist_wheel</text>
</g>
</g>
</svg>
